# xmcd
#
# Track frame offsets:
#	150
#	37502
#	65384
#	95152
#	122370
#	143522
#	166511
#	196157
#	211849
#	233232
#	261521
#	280276
#	328909
#
# Disc length: 4793
#
# Revision: 1
# Processed by: cddbd v1.5.1PL0 Copyright (c) Steve Scherf et al.
# Submitted via: dBpowerAMP V4.0
# Normalized: r0:TRMNUM
#
DISCID=af12b70d
DTITLE=Victor and Kyla Brox - Frog In Mah Pocket
DYEAR=2003
DGENRE=Blues
TTITLE0=Lucille
TTITLE1=Breakin Up Somebodys Home
TTITLE2=Oh What A Price
TTITLE3=Frog In Mah Pocket
TTITLE4=Guess Who?
TTITLE5=Bread Aint Done
TTITLE6=Working On Your Love
TTITLE7=Backwater Blues
TTITLE8=Steal Away
TTITLE9=Belly Shiver
TTITLE10=The Victor Shuffle
TTITLE11=Part Time Woman
TTITLE12=Goin Down Slow
EXTD=
EXTT0=
EXTT1=
EXTT2=
EXTT3=
EXTT4=
EXTT5=
EXTT6=
EXTT7=
EXTT8=
EXTT9=
EXTT10=
EXTT11=
EXTT12=
PLAYORDER=
